<?xml version="1.0" standalone="no"?>
<!DOCTYPE svg PUBLIC "-//W3C//DTD SVG 20010904//EN"
 "http://www.w3.org/TR/2001/REC-SVG-20010904/DTD/svg10.dtd">
<svg version="1.0" xmlns="http://www.w3.org/2000/svg"
 width="478.000000pt" height="478.000000pt" viewBox="0 0 478.000000 478.000000"
 preserveAspectRatio="xMidYMid meet">

<g transform="translate(0.000000,478.000000) scale(0.100000,-0.100000)"
fill="#000000" stroke="none">
<path d="M220 3625 l0 -956 68 3 67 3 3 883 2 882 2030 0 2030 0 0 -885 0
-885 65 0 65 0 0 955 0 955 -2165 0 -2165 0 0 -955z"/>
<path d="M1078 3969 c-21 -12 -25 -72 -5 -86 6 -5 41 -17 77 -27 82 -22 107
-38 115 -74 8 -39 3 -53 -235 -612 -111 -261 -204 -481 -207 -488 -4 -10 10
-12 63 -10 l69 3 24 63 25 62 335 0 336 0 25 -63 25 -62 138 -3 c111 -2 137 0
137 11 0 20 -416 1042 -448 1101 -36 65 -103 133 -155 156 -75 33 -281 52
-319 29z m411 -707 c72 -184 131 -336 131 -338 0 -2 -126 -4 -281 -4 -154 0
-279 4 -277 9 80 206 283 680 289 674 4 -4 66 -158 138 -341z"/>
<path d="M2421 3957 c-12 -12 -15 -66 -3 -83 4 -6 37 -15 74 -18 74 -8 107
-28 136 -79 15 -29 17 -82 20 -570 l3 -538 132 3 132 3 3 188 2 187 420 0 420
0 2 -187 3 -188 130 0 130 0 5 540 c5 492 7 543 23 572 22 41 57 59 132 68 33
4 66 12 73 17 16 13 16 73 0 86 -9 7 -137 10 -361 10 -380 0 -377 1 -377 -57
0 -38 14 -47 85 -56 81 -10 113 -28 136 -78 17 -38 19 -69 19 -324 l0 -283
-420 0 -420 0 0 283 c0 255 2 286 19 324 23 51 56 69 139 79 45 5 65 12 72 25
15 27 12 54 -7 72 -16 13 -63 15 -364 15 -242 0 -350 -3 -358 -11z"/>
<path d="M265 2402 c-33 -7 -45 -22 -45 -57 0 -40 26 -65 68 -65 53 0 83 69
45 102 -23 19 -43 25 -68 20z"/>
<path d="M4462 2399 c-34 -13 -47 -50 -31 -85 11 -23 22 -30 50 -32 45 -4 69
18 69 62 0 48 -40 72 -88 55z"/>
<path d="M4057 2353 c-4 -3 -7 -17 -7 -30 l0 -23 -1217 0 c-670 0 -1426 -3
-1680 -7 l-461 -6 -4 29 c-2 18 -10 30 -21 32 -15 3 -17 -6 -17 -73 0 -67 2
-76 18 -73 9 2 18 13 20 25 l3 22 307 3 c169 2 924 5 1678 6 l1371 2 7 -31 c3
-18 11 -29 18 -27 19 7 24 158 5 158 -7 0 -17 -3 -20 -7z"/>
<path d="M220 1130 l0 -880 2165 0 2165 0 0 880 0 880 -65 0 -65 0 -2 -812 -3
-813 -2027 -3 -2028 -2 0 815 0 815 -70 0 -70 0 0 -880z"/>
<path d="M818 1498 c-3 -490 -4 -515 -23 -552 -28 -56 -59 -75 -138 -84 -41
-5 -72 -14 -78 -23 -12 -19 -11 -46 1 -70 10 -18 25 -19 363 -19 261 0 356 3
365 12 16 16 15 73 0 85 -7 6 -40 13 -74 16 -71 6 -97 19 -127 67 -21 34 -22
44 -22 325 l0 290 420 0 420 0 0 -285 c0 -267 -1 -287 -20 -319 -31 -53 -65
-73 -139 -80 -36 -4 -68 -10 -71 -13 -4 -3 -7 -20 -7 -37 -2 -62 -10 -61 371
-61 192 0 352 4 361 9 15 10 20 75 7 88 -4 4 -37 10 -73 14 -77 8 -110 28
-139 85 -19 37 -20 62 -23 552 l-3 512 -129 0 -130 0 -2 -172 -3 -173 -420 0
-420 0 -3 173 -2 172 -130 0 -129 0 -3 -512z"/>
<path d="M2853 1998 c3 -7 96 -235 206 -506 110 -271 215 -520 233 -554 72
-135 159 -186 334 -195 56 -3 113 -3 127 1 47 11 45 92 -2 102 -81 18 -134 37
-153 56 -38 38 -23 85 185 573 107 253 202 477 210 498 l16 37 -68 0 -68 0
-17 -45 -18 -45 -333 0 -334 0 -20 45 -20 45 -142 0 c-109 0 -140 -3 -136 -12z
m927 -205 c0 -5 -212 -525 -262 -643 -16 -36 -21 -42 -28 -29 -7 12 -175 435
-261 657 l-9 22 280 0 c154 0 280 -3 280 -7z"/>
</g>
</svg>
